<svg xmlns="http://www.w3.org/2000/svg" viewBox="0 0 1024 1024" aria-hidden="true">
  <path d="M 501.341 75.932 C 499.054 76.971, 490.729 83.396, 482.841 90.211 C 453.883 115.230, 311.103 237.556, 227 309.402 C 179.425 350.044, 137.860 385.817, 134.633 388.898 C 127.324 395.877, 124.762 401.232, 124.823 409.396 C 124.878 416.725, 126.798 421.664, 131.705 427.095 C 140.668 437.017, 154.749 438.771, 166.229 431.395 C 168.279 430.078, 170.192 429, 170.479 429 C 170.765 429, 171.010 503.813, 171.022 595.250 C 171.043 754.097, 171.125 761.679, 172.871 765.522 C 175.124 770.482, 179.636 775.098, 184.680 777.603 C 188.392 779.446, 194.767 779.507, 409.310 779.757 L 630.120 780.013 623.810 774.851 C 620.339 772.012, 611.157 763.347, 603.405 755.595 C 569.014 721.204, 551.995 688.447, 544.386 642 C 542.941 633.180, 542.600 622.221, 542.255 573.500 C 541.979 534.532, 542.191 514.338, 542.900 511.958 C 544.704 505.904, 548.702 503.169, 563.179 498.084 L 576.500 493.404 576.760 446.849 C 577.015 401.191, 576.980 400.244, 574.964 397.682 C 573.834 396.245, 571.242 394.606, 569.205 394.040 C 564.263 392.668, 498.737 392.668, 493.795 394.040 C 491.758 394.606, 489.171 396.239, 488.045 397.669 C 486.004 400.265, 486 400.577, 486 563.135 L 486 726 477.500 726 L 469 726 469 684.968 C 469 641.316, 468.723 638.528, 464.150 636.080 C 462.813 635.365, 450.117 635, 426.520 635 L 390.909 635 388.455 637.455 L 386 639.909 386 682.955 L 386 726 337.250 725.762 L 288.500 725.523 328.750 725.250 L 369 724.977 369 697.457 C 369 667.931, 368.569 664.913, 363.883 661.631 C 361.844 660.202, 357.419 660, 328.212 660 C 307.255 660, 294.154 660.383, 292.945 661.030 C 288.361 663.483, 288 666.105, 288 696.950 L 288 726 255.500 726 L 223 726 223 558.169 L 223 390.337 233.250 381.426 C 238.887 376.524, 275 345.499, 313.500 312.482 C 431.218 211.526, 482.880 167.170, 497.136 154.816 C 504.636 148.317, 511.285 143, 511.911 143 C 512.537 143, 524.401 152.798, 538.275 164.774 C 552.149 176.750, 612.100 228.194, 671.500 279.095 C 730.900 329.995, 784.225 375.780, 790 380.839 L 800.500 390.036 801 430.195 L 801.500 470.354 827 479.596 C 841.025 484.679, 852.851 488.501, 853.280 488.089 C 853.709 487.677, 853.934 474.213, 853.780 458.169 C 853.626 442.126, 853.622 428.999, 853.771 428.999 C 853.921 429, 855.721 430.099, 857.771 431.442 C 871.620 440.511, 889.758 435.280, 897.253 420.055 C 900.606 413.243, 900.419 403.049, 896.830 397 C 893.365 391.161, 891.467 389.407, 853 356.498 C 835.125 341.206, 818.820 327.105, 816.767 325.161 L 813.035 321.628 812.767 241.894 L 812.500 162.161 810 159.451 C 804.977 154.008, 804.889 154, 754.282 154.002 C 702.717 154.003, 703.253 153.943, 698.571 160.322 C 696.587 163.025, 696.500 164.383, 696.500 192.571 C 696.500 208.756, 696.232 221.999, 695.904 221.999 C 695.576 222, 657.776 189.790, 611.904 150.423 C 558.341 104.455, 526.711 77.982, 523.500 76.432 C 517.135 73.361, 507.484 73.143, 501.341 75.932 M 352.113 326.558 C 344.532 332.937, 309.691 378.332, 293.444 403 C 262.741 449.615, 249.044 481.413, 247.355 510 C 245.552 540.506, 256.347 569.238, 278.419 592.678 C 293.274 608.454, 310.961 618.871, 332.926 624.780 C 341.442 627.071, 344.379 627.356, 359.500 627.356 C 374.661 627.356, 377.546 627.074, 386.170 624.756 C 429.387 613.136, 462.406 578.357, 470.443 535.989 C 472.350 525.936, 472.421 506.243, 470.588 496 C 465.887 469.739, 447.386 433.545, 415.128 387.500 C 399.221 364.794, 370.760 329.046, 365.853 325.609 C 362.244 323.081, 355.709 323.533, 352.113 326.558 M 598.117 325.631 C 592.933 329.261, 593 328.154, 593 410.468 C 593 460.280, 593.345 487, 593.989 487 C 596.726 487, 659.125 461.084, 680.250 451.174 L 691 446.130 691 390.033 C 691 329.775, 690.953 329.182, 685.883 325.631 C 683.821 324.187, 678.799 324, 642 324 C 605.201 324, 600.179 324.187, 598.117 325.631 M 303.351 441.800 C 268.977 485.321, 263.697 528.580, 288.497 563.500 C 296.523 574.801, 308.656 584.572, 320.767 589.487 C 327.896 592.380, 330.997 592.091, 334.016 588.253 C 338.265 582.851, 336.304 579.251, 320.008 562.546 C 306.268 548.460, 300.855 541.011, 296.158 529.720 C 285.947 505.174, 289.129 476.726, 305.915 442.502 C 308.073 438.104, 309.747 434.414, 309.636 434.302 C 309.524 434.191, 306.696 437.565, 303.351 441.800 M 708 463.387 C 705.525 464.075, 695.625 468.277, 686 472.723 C 649.093 489.772, 617.006 502.655, 584.002 513.675 C 573.278 517.256, 564.154 520.706, 563.728 521.343 C 563.302 521.979, 563.121 547.250, 563.327 577.500 C 563.673 628.410, 563.859 633.331, 565.819 643.670 C 574.480 689.358, 597.504 725.097, 640.183 759.097 C 665.254 779.071, 707.278 803.273, 716.887 803.273 C 723.835 803.273, 751.439 788.853, 775 772.916 C 830.211 735.568, 859.315 694.605, 868.724 641 C 870.840 628.943, 871.802 523.368, 869.819 520.776 C 869.076 519.805, 858.887 515.798, 846.500 511.607 C 808.654 498.800, 780.751 487.887, 746.500 472.497 C 722.108 461.538, 718.077 460.584, 708 463.387 M 708.500 510.890 C 706.153 511.909, 701 516.887, 701 518.136 C 701 518.611, 694.686 519, 686.968 519 C 677.312 519, 671.932 519.428, 669.718 520.371 C 659.393 524.770, 658.003 538.373, 667.299 544.040 C 670.070 545.730, 672.380 545.993, 684.500 545.997 L 698.500 546.001 698.500 553.751 L 698.500 561.500 691.771 562 C 681.996 562.726, 681 563.879, 681 574.471 C 681 582.474, 680.871 582.988, 678.750 583.419 C 658.116 587.612, 646.796 593.027, 635.909 603.911 C 623.233 616.584, 617.205 631.816, 618.362 648.250 L 618.978 657 616.505 657 C 615.145 657, 612.620 658.261, 610.895 659.802 C 608.306 662.115, 607.769 663.328, 607.816 666.750 C 607.888 671.966, 609.269 674.571, 612.980 676.490 C 617.148 678.645, 665.711 678.718, 669.855 676.575 C 675.660 673.573, 676.845 664.691, 672.077 659.923 C 670.469 658.315, 668.275 657, 667.200 657 C 665.466 657, 665.301 656.463, 665.736 652.250 C 666.324 646.546, 668.056 643.545, 672.221 641.012 C 677.709 637.675, 682.383 637.482, 687.232 640.392 C 699.968 648.038, 701.551 648.500, 715 648.500 C 724.452 648.500, 728.756 648.062, 732.649 646.703 C 739.253 644.399, 746.258 639.754, 747.978 636.541 L 749.324 634.027 781.912 633.763 L 814.500 633.500 814.500 609 L 814.500 584.500 782.250 584.236 L 750 583.972 750 574.986 C 750 563.498, 748.846 562, 740 562 L 734 562 734 554 L 734 546 747.550 546 C 762.746 546, 765.734 545.124, 769.040 539.701 C 772.764 533.595, 770.946 525.480, 764.894 521.195 C 762.948 519.817, 759.575 519.437, 746.873 519.164 C 732.056 518.846, 731.185 518.716, 730.062 516.664 C 727.749 512.440, 723.890 510.553, 717.005 510.280 C 713.427 510.138, 709.600 510.413, 708.500 510.890 M 707.241 512.995 C 705.448 514.088, 703.198 516.223, 702.241 517.741 L 700.500 520.500 686.785 520.222 C 671.046 519.903, 667.252 520.898, 664.026 526.190 C 662.916 528.010, 662.006 531.240, 662.004 533.368 C 662.001 536.530, 662.708 537.944, 665.882 541.118 L 669.765 545 684.882 545 L 700 545 700 554 L 700 563 692.655 563 C 682.706 563, 682 563.837, 682 575.633 L 682 584.609 677.860 584.853 C 675.582 584.988, 669.620 586.415, 664.610 588.025 C 635.114 597.501, 618.154 620.208, 619.161 648.870 L 619.500 658.500 616.773 658.181 C 609.783 657.365, 606.027 668.857, 611.579 674.076 L 614.158 676.500 641.110 676.796 L 668.062 677.092 671.031 674.123 C 673.363 671.791, 674 670.269, 674 667.031 C 674 662.189, 670.576 658, 666.618 658 C 664.205 658, 664.159 657.859, 664.734 652.250 C 665.467 645.093, 667.839 641.746, 674.078 639.062 C 680.742 636.195, 683.727 636.462, 689.653 640.452 C 697.167 645.512, 705.454 648.003, 714.718 647.985 C 729.177 647.958, 740.943 643.725, 746.733 636.468 L 749.500 633 781.750 633 L 814 633 814 609 L 814 585 781.500 585 L 749 585 749 575.655 C 749 564.034, 748.197 563, 739.171 563 L 733 563 733 554 L 733 545 747.618 545 L 762.235 545 766.118 541.118 C 769.473 537.763, 770 536.626, 770 532.753 C 770 529.668, 769.324 527.410, 767.832 525.514 C 764.185 520.877, 760.504 520, 744.693 520 C 730.330 520, 730.320 519.998, 729.181 517.498 C 726.349 511.283, 714.153 508.780, 707.241 512.995 M 639.481 689.200 C 636.860 692.665, 632.723 699.602, 630.287 704.617 C 626.640 712.122, 625.857 714.735, 625.857 719.403 C 625.857 741.351, 652.224 748.756, 662.249 729.624 C 665.183 724.024, 665.100 715.448, 662.034 707.577 C 659.259 700.453, 648.090 683.641, 645.845 683.209 C 644.852 683.017, 642.435 685.293, 639.481 689.200 M 640.477 689.750 C 637.973 692.913, 633.877 699.550, 631.375 704.500 C 627.035 713.087, 626.843 713.829, 627.179 720.677 C 627.486 726.928, 627.930 728.346, 630.622 731.677 C 635.132 737.257, 639.429 739.444, 645.702 739.353 C 655.127 739.217, 662.181 732.287, 663.617 721.753 C 664.277 716.910, 661.505 707.396, 657.278 700 C 653.853 694.007, 646.686 684.066, 645.765 684.029 C 645.360 684.013, 642.981 686.587, 640.477 689.750" fill="currentColor"/>
</svg>